<svg xmlns="http://www.w3.org/2000/svg" width="22.506" height="22.503" viewBox="0 0 22.506 22.503"><g transform="translate(0.751 0.751)"><path d="M288.245,1369.93l-3.9,2.9a1.4,1.4,0,0,0-.181,2.133l3.254,3.254a1.4,1.4,0,0,0,2.133-.181l2.9-3.9" transform="translate(-283.75 -1357.627)" fill="none" stroke="#fff" stroke-linecap="round" stroke-linejoin="round" stroke-width="1.5"/><path d="M301.135,1365.447l3.9-2.9a1.4,1.4,0,0,0,.181-2.133l-3.254-3.253a1.4,1.4,0,0,0-2.133.18l-2.9,3.9" transform="translate(-284.627 -1356.75)" fill="none" stroke="#fff" stroke-linecap="round" stroke-linejoin="round" stroke-width="1.5"/><path d="M295.393,1371.5l4.534,6.32v-4.9h4.9l-6.32-4.534" transform="translate(-284.525 -1357.524)" fill="none" stroke="#f0a55a" stroke-linecap="round" stroke-linejoin="round" stroke-width="1.5"/><path d="M294.75,1371.251a3.5,3.5,0,1,0-3.5-3.5A3.5,3.5,0,0,0,294.75,1371.251Z" transform="translate(-284.249 -1357.249)" fill="none" stroke="#f0a55a" stroke-linecap="round" stroke-linejoin="round" stroke-width="1.5"/></g></svg>