<svg xmlns="http://www.w3.org/2000/svg" width="37" height="37" viewBox="0 0 37 37">
    <defs>
        <style>
            .cls-2{fill:#fff}
        </style>
    </defs>
    <g id="Groupe_1995" transform="translate(-10 -7)">
        <g id="Tracé_713" fill="none" stroke="none">
            <path d="M5 0h27a5 5 0 0 1 5 5v27a5 5 0 0 1-5 5H5a5 5 0 0 1-5-5V5a5 5 0 0 1 5-5z" transform="translate(10 7)"/>
            <path fill="#fff" d="M5 1C2.794 1 1 2.794 1 5v27c0 2.206 1.794 4 4 4h27c2.206 0 4-1.794 4-4V5c0-2.206-1.794-4-4-4H5m0-1h27c2.761 0 5 2.239 5 5v27c0 2.761-2.239 5-5 5H5c-2.761 0-5-2.239-5-5V5c0-2.761 2.239-5 5-5z" transform="translate(10 7)"/>
        </g>
        <g id="Groupe_1551" transform="translate(1 3)">
            <path id="Tracé_612" d="M27 31.5h20c.845 0 1.5-.437 1.5-1s-.657-1-1.5-1H27c-.845 0-1.5.438-1.5 1s.657 1 1.5 1z" class="cls-2" transform="translate(-9.5 -14.5)"/>
            <path id="Tracé_613" d="M27 48.8h20c.845 0 1.5-.437 1.5-1s-.657-1-1.5-1H27c-.845 0-1.5.438-1.5 1s.657 1 1.5 1z" class="cls-2" transform="translate(-9.5 -24.813)"/>
            <path id="Tracé_614" d="M47 66.1c.845 0 1.5-.437 1.5-1s-.657-1-1.5-1H27c-.845 0-1.5.438-1.5 1s.657 1 1.5 1z" class="cls-2" transform="translate(-9.5 -35.125)"/>
        </g>
    </g>
</svg>