<svg xmlns="http://www.w3.org/2000/svg" width="21" height="21" viewBox="0 0 21 21"><g transform="translate(-448.505 -2356.5)" fill="none" stroke-linecap="round" stroke-linejoin="round"><path d="M459.005,2377.5a10.5,10.5,0,1,0-10.5-10.5A10.5,10.5,0,0,0,459.005,2377.5Z" stroke="none"/><path d="M 459.0050048828125 2376 C 463.9676208496094 2376 468.0050048828125 2371.962646484375 468.0050048828125 2367 C 468.0050048828125 2362.037353515625 463.9676208496094 2358 459.0050048828125 2358 C 454.0423889160156 2358 450.0050048828125 2362.037353515625 450.0050048828125 2367 C 450.0050048828125 2371.962646484375 454.0423889160156 2376 459.0050048828125 2376 M 459.0050048828125 2377.5 C 453.2059936523438 2377.5 448.5050048828125 2372.799072265625 448.5050048828125 2367 C 448.5050048828125 2361.200927734375 453.2059936523438 2356.5 459.0050048828125 2356.5 C 464.8039855957031 2356.5 469.5050048828125 2361.200927734375 469.5050048828125 2367 C 469.5050048828125 2372.799072265625 464.8039855957031 2377.5 459.0050048828125 2377.5 Z" stroke="none" fill="#fff"/></g><path d="M459.005,2367v-3.75" transform="translate(-448.505 -2356.5)" fill="none" stroke="#f0a55a" stroke-linecap="round" stroke-linejoin="round" stroke-width="1.5"/><path d="M459.005,2367l4.687,4.688" transform="translate(-448.505 -2356.5)" fill="none" stroke="#f0a55a" stroke-linecap="round" stroke-linejoin="round" stroke-width="1.5"/></svg>